<svg width="16" height="16" viewBox="0 0 16 16" fill="none" xmlns="http://www.w3.org/2000/svg">
<g clip-path="url(#clip0_1104_1589)">
<path d="M12.2426 10.3568L11.2999 9.41284L12.2426 8.47017C12.5543 8.16114 12.802 7.79357 12.9713 7.38857C13.1406 6.98357 13.2283 6.54911 13.2292 6.11015C13.2302 5.67118 13.1445 5.23635 12.9769 4.83061C12.8094 4.42487 12.5633 4.05622 12.2529 3.74583C11.9425 3.43543 11.5739 3.1894 11.1682 3.02185C10.7624 2.85431 10.3276 2.76856 9.88862 2.76952C9.44965 2.77048 9.0152 2.85814 8.6102 3.02746C8.2052 3.19677 7.83763 3.44442 7.52859 3.75617L6.58593 4.6995L5.64259 3.75684L6.58659 2.81417C7.46181 1.93896 8.64885 1.44727 9.88659 1.44727C11.1243 1.44727 12.3114 1.93896 13.1866 2.81417C14.0618 3.68938 14.5535 4.87643 14.5535 6.11417C14.5535 7.35191 14.0618 8.53896 13.1866 9.41417L12.2426 10.3568ZM10.3573 12.2422L9.41393 13.1848C8.53871 14.0601 7.35167 14.5517 6.11393 14.5517C4.87619 14.5517 3.68914 14.0601 2.81393 13.1848C1.93871 12.3096 1.44702 11.1226 1.44702 9.88484C1.44702 8.6471 1.93871 7.46005 2.81393 6.58484L3.75726 5.64217L4.69993 6.58617L3.75726 7.52884C3.44551 7.83787 3.19786 8.20544 3.02855 8.61044C2.85923 9.01544 2.77157 9.44989 2.77061 9.88886C2.76965 10.3278 2.8554 10.7627 3.02294 11.1684C3.19049 11.5741 3.43652 11.9428 3.74691 12.2532C4.05731 12.5636 4.42596 12.8096 4.8317 12.9772C5.23744 13.1447 5.67227 13.2304 6.11124 13.2295C6.5502 13.2285 6.98466 13.1409 7.38966 12.9716C7.79466 12.8022 8.16222 12.5546 8.47126 12.2428L9.41393 11.3002L10.3573 12.2422ZM9.88526 5.17084L10.8286 6.11417L6.11459 10.8275L5.17126 9.88484L9.88526 5.17084Z" fill="white"/>
</g>
<defs>
<clipPath id="clip0_1104_1589">
<rect width="16" height="16" fill="white"/>
</clipPath>
</defs>
</svg>
