<svg width="14" height="14" viewBox="0 0 14 14" fill="none" xmlns="http://www.w3.org/2000/svg">
<path d="M11.2426 9.35684L10.2999 8.41284L11.2426 7.47017C11.5543 7.16114 11.802 6.79357 11.9713 6.38857C12.1406 5.98357 12.2283 5.54911 12.2292 5.11015C12.2302 4.67118 12.1445 4.23635 11.9769 3.83061C11.8094 3.42487 11.5633 3.05622 11.2529 2.74583C10.9425 2.43543 10.5739 2.1894 10.1682 2.02185C9.76242 1.85431 9.32758 1.76856 8.88862 1.76952C8.44965 1.77048 8.0152 1.85814 7.6102 2.02746C7.2052 2.19677 6.83763 2.44442 6.52859 2.75617L5.58593 3.6995L4.64259 2.75684L5.58659 1.81417C6.46181 0.938956 7.64885 0.447266 8.88659 0.447266C10.1243 0.447266 11.3114 0.938956 12.1866 1.81417C13.0618 2.68938 13.5535 3.87643 13.5535 5.11417C13.5535 6.35191 13.0618 7.53896 12.1866 8.41417L11.2426 9.35684ZM9.35726 11.2422L8.41393 12.1848C7.53871 13.0601 6.35167 13.5517 5.11393 13.5517C3.87619 13.5517 2.68914 13.0601 1.81393 12.1848C0.938712 11.3096 0.447021 10.1226 0.447021 8.88484C0.447021 7.6471 0.938712 6.46005 1.81393 5.58484L2.75726 4.64217L3.69993 5.58617L2.75726 6.52884C2.44551 6.83787 2.19786 7.20544 2.02855 7.61044C1.85923 8.01544 1.77157 8.44989 1.77061 8.88886C1.76965 9.32783 1.8554 9.76266 2.02294 10.1684C2.19049 10.5741 2.43652 10.9428 2.74691 11.2532C3.05731 11.5636 3.42596 11.8096 3.8317 11.9772C4.23744 12.1447 4.67227 12.2304 5.11124 12.2295C5.5502 12.2285 5.98466 12.1409 6.38966 11.9716C6.79466 11.8022 7.16222 11.5546 7.47126 11.2428L8.41393 10.3002L9.35726 11.2422ZM8.88526 4.17084L9.82859 5.11417L5.11459 9.82751L4.17126 8.88484L8.88526 4.17084Z" fill="#406AF6"/>
</svg>
